<svg width="256" height="250" xmlns="http://www.w3.org/2000/svg" preserveAspectRatio="xMidYMid">

 <g>
  <title>background</title>
  <rect fill="none" id="canvas_background" height="602" width="802" y="-1" x="-1"/>
 </g>
 <g>
  <title>Layer 1</title>
  <g id="svg_1">
   <path id="svg_2" fill="#ffffff" d="m128.00106,0c-70.683767,0 -128.00106,57.306694 -128.00106,128.00106c0,56.554221 36.6762,104.534482 87.534937,121.459839c6.397085,1.18488 8.745651,-2.776734 8.745651,-6.157566c0,-3.052288 -0.1187,-13.135434 -0.173811,-23.831157c-35.610019,7.743059 -43.124156,-15.102464 -43.124156,-15.102464c-5.822663,-14.795114 -14.212213,-18.729174 -14.212213,-18.729174c-11.613529,-7.944425 0.875413,-7.781213 0.875413,-7.781213c12.853521,0.902968 19.621544,13.190545 19.621544,13.190545c11.416403,19.568553 29.94421,13.911223 37.248503,10.640612c1.148847,-8.27297 4.466091,-13.919702 8.126715,-17.116125c-28.430784,-3.236697 -58.317764,-14.212213 -58.317764,-63.258655c0,-13.974813 5.00024,-25.393334 13.188425,-34.357308c-1.329017,-3.223979 -5.710321,-16.242832 1.239991,-33.87403c0,0 10.748715,-3.440183 35.209406,13.120596c10.210326,-2.836084 21.160406,-4.258365 32.038419,-4.307117c10.878013,0.048752 21.836572,1.471033 32.065973,4.307117c24.431017,-16.560779 35.164893,-13.120596 35.164893,-13.120596c6.967271,17.631198 2.583847,30.650051 1.25483,33.87403c8.207262,8.963974 13.173587,20.382495 13.173587,34.357308c0,49.163023 -29.94421,59.988045 -58.447062,63.156912c4.591149,3.972214 8.682061,11.761904 8.682061,23.703979c0,17.126724 -0.148374,30.910768 -0.148374,35.12674c0,3.406268 2.304052,7.397557 8.792282,6.140608c50.831182,-16.944434 87.46075,-64.907737 87.46075,-121.442881c0,-70.694366 -57.308813,-128.00106 -127.99894,-128.00106zm-80.060501,182.340212c-0.281912,0.635893 -1.282384,0.826661 -2.193831,0.390015c-0.928405,-0.417571 -1.449837,-1.284505 -1.148847,-1.922517c0.275553,-0.654971 1.278145,-0.83726 2.204429,-0.398494c0.930524,0.41757 1.460435,1.292983 1.138249,1.930996zm6.29623,5.618042c-0.610457,0.565945 -1.803817,0.303109 -2.613521,-0.59138c-0.837259,-0.89237 -0.994113,-2.08573 -0.375177,-2.660154c0.629534,-0.565945 1.78686,-0.300989 2.626239,0.591381c0.837259,0.902968 1.000472,2.087849 0.362459,2.660153zm4.319452,7.188093c-0.784268,0.544749 -2.066652,0.033914 -2.859399,-1.104334c-0.784269,-1.138249 -0.784269,-2.5033 0.016957,-3.050168c0.794866,-0.546868 2.058174,-0.05511 2.861519,1.07466c0.782149,1.157325 0.782149,2.522375 -0.019077,3.079842zm7.305118,8.324827c-0.701602,0.773672 -2.195951,0.565946 -3.289687,-0.489636c-1.119172,-1.032268 -1.43076,-2.496942 -0.727038,-3.270612c0.710081,-0.775789 2.212908,-0.557466 3.315123,0.489638c1.110694,1.030148 1.449837,2.50542 0.701602,3.27061zm9.441156,2.810368c-0.309468,1.002592 -1.748706,1.458315 -3.198543,1.032267c-1.447716,-0.438766 -2.395197,-1.613048 -2.102686,-2.626238c0.300989,-1.00895 1.746586,-1.483751 3.207021,-1.028028c1.445597,0.436647 2.395198,1.602451 2.094208,2.621999zm10.744432,1.192085c0.036034,1.055582 -1.19336,1.930995 -2.715264,1.950073c-1.530383,0.033914 -2.768255,-0.820302 -2.785212,-1.858928c0,-1.066181 1.201838,-1.933115 2.732221,-1.958551c1.521904,-0.029675 2.768255,0.818182 2.768255,1.867406zm10.5552,-0.404604c0.18229,1.030148 -0.875413,2.087849 -2.386719,2.369762c-1.48587,0.271314 -2.861519,-0.364579 -3.050168,-1.386247c-0.184409,-1.055583 0.892371,-2.113285 2.376121,-2.386718c1.513426,-0.262836 2.867879,0.356099 3.060766,1.403203z"/>
  </g>
 </g>
</svg>