<svg width="512" height="130" xmlns="http://www.w3.org/2000/svg" preserveAspectRatio="xMidYMid">

 <g>
  <title>background</title>
  <rect fill="none" id="canvas_background" height="602" width="802" y="-1" x="-1"/>
 </g>
 <g>
  <title>Layer 1</title>
  <g id="svg_1">
   <path id="svg_2" fill="#006087" d="m0,19.163557l19.986896,0l0,72.80478l37.010672,0l0,18.442798l-56.997568,0l0,-91.247578"/>
   <path id="svg_3" fill="#006087" d="m75.430468,17.811121c6.152098,0 11.145223,4.993125 11.145223,11.139824c0,6.156598 -4.993125,11.138025 -11.145223,11.138025c-6.1458,0 -11.138925,-4.981427 -11.138925,-11.138025c0,-6.146699 4.993125,-11.139824 11.138925,-11.139824l0,0zm-9.606524,30.739796l19.213047,0l0,61.836823l-19.213047,0l0,-61.836823z"/>
   <path id="svg_4" fill="#006087" d="m95.662116,48.558116l18.441898,0l0,8.452049l0.25645,0c2.5591,-4.86535 8.836274,-9.985349 18.185448,-9.985349c19.468598,0 23.054397,12.803599 23.054397,29.449448l0,33.913476l-19.212147,0l0,-30.065828c0,-7.176098 -0.132274,-16.394798 -9.994348,-16.394798c-9.98715,0 -11.52045,7.815874 -11.52045,15.880099l0,30.580527l-19.211248,0l0,-61.829624"/>
   <path id="svg_5" fill="#006087" d="m165.343606,19.158158l19.204949,0l0,54.534749l21.757751,-25.169884l23.546601,0l-25.197779,28.629708l24.670482,33.258404l-24.143185,0l-20.382819,-30.56703l-0.251051,0l0,30.56703l-19.204949,0l0,-91.252977"/>
   <path id="svg_6" fill="#006087" d="m286.551733,99.679831c-6.152998,7.815874 -16.261624,12.302397 -26.255972,12.302397c-19.206749,0 -34.576647,-12.814397 -34.576647,-32.66452c0,-19.850123 15.369898,-32.653722 34.576647,-32.653722c17.940696,0 29.203796,12.803599 29.203796,32.653722l0,6.019824l-44.568295,0c1.526102,7.301174 7.040225,12.040549 14.470074,12.040549c6.278073,0 10.500949,-3.203375 13.704323,-7.559424l13.446074,9.861174l0,0zm-16.261624,-27.401448c0.125975,-6.404949 -4.868049,-11.783198 -11.790397,-11.783198c-8.44935,0 -13.061849,5.763374 -13.56845,11.783198l25.358847,0l0,0z"/>
   <path id="svg_7" fill="#006087" d="m362.567086,110.376942l-17.679747,0l0,-8.199199l-0.249251,0c-2.955023,4.481125 -10.375874,9.735199 -19.087972,9.735199c-18.448197,0 -30.612921,-13.3147 -30.612921,-32.144422c0,-17.292822 10.757399,-33.172921 28.429947,-33.172921c7.947248,0 15.374398,2.176675 19.730447,8.1947l0.251951,0l0,-35.632141l19.217546,0l0,91.218784l0,0zm-33.056843,-46.874545c-9.598426,0 -15.36,6.409448 -15.36,15.750524c0,9.359072 5.761574,15.754123 15.36,15.754123c9.614622,0 15.377096,-6.395051 15.377096,-15.754123c0,-9.341076 -5.762474,-15.750524 -15.377096,-15.750524l0,0z"/>
   <path id="svg_8" fill="#006087" d="m501.763599,0l-110.421033,0c-5.27657,0 -9.563332,4.182383 -9.563332,9.339276l0,110.885343c0,5.161392 4.286762,9.350073 9.563332,9.350073l110.421033,0c5.285568,0 9.592127,-4.188681 9.592127,-9.350073l0,-110.885343c0,-5.156893 -4.306559,-9.339276 -9.592127,-9.339276"/>
   <path id="svg_9" fill="#FFFFFF" d="m410.603304,17.839016c6.1458,0 11.138025,4.993125 11.138025,11.139824c0,6.151199 -4.992225,11.146123 -11.138025,11.146123c-6.158397,0 -11.144323,-4.994924 -11.144323,-11.146123c0,-6.146699 4.985926,-11.139824 11.144323,-11.139824l0,0zm-9.612822,30.738896l19.218446,0l0,61.836823l-19.218446,0l0,-61.836823z"/>
   <path id="svg_10" fill="#FFFFFF" d="m432.262974,48.577912l18.436499,0l0,8.44845l0.25555,0c2.564499,-4.860851 8.834474,-9.987149 18.183648,-9.987149c19.461399,0 23.054398,12.807198 23.054398,29.456646l0,33.918876l-19.204949,0l0,-30.071227c0,-7.174299 -0.132275,-16.397498 -9.98715,-16.397498c-10.001546,0 -11.533047,7.812275 -11.533047,15.878299l0,30.590426l-19.204949,0l0,-61.836823"/>
  </g>
 </g>
</svg>